<?xml version="1.0" encoding="utf-8"?>
<svg viewBox="0 0 541.373 518.596" width="541.373px" height="518.596px" xmlns="http://www.w3.org/2000/svg">
  <path d="M 521.198 478.557 L 537.317 473.444 C 539.325 464.794 539.192 455.783 536.928 447.195 C 530.453 461.594 511.454 465.122 500.629 476.614 C 493.845 483.928 490.756 493.929 492.233 503.794 L 488.842 515.298 C 504.871 513.928 519.497 505.608 528.866 492.531 C 531.427 488.88 533.519 484.921 535.091 480.747 C 528.217 480.059 521.198 478.557 521.198 478.557 Z" fill="#f2f2f2"/>
  <path d="M 515.744 458.524 L 527.89 446.759 C 525.83 438.12 521.692 430.115 515.836 423.438 C 516.462 439.213 501.03 450.844 496.467 465.958 C 493.657 475.529 495.352 485.858 501.074 494.029 L 503.169 505.838 C 516.905 497.463 526.286 483.494 528.839 467.61 C 529.503 463.2 529.609 458.724 529.155 454.288 C 522.695 456.737 515.744 458.524 515.744 458.524 Z" fill="#f2f2f2"/>
  <path d="M 538.175 35.254 L 2.086 35.254 C 0.444 35.219 -0.543 33.37 0.307 31.927 C 0.685 31.285 1.357 30.887 2.086 30.871 L 538.175 30.871 C 539.816 30.906 540.804 32.755 539.954 34.199 C 539.576 34.841 538.905 35.239 538.175 35.254 Z" fill="#3f3d56" style=""/>
  <ellipse cx="31.921" cy="15.446" rx="10.588" ry="10.823" fill="#3f3d56"/>
  <ellipse cx="68.496" cy="15.446" rx="10.588" ry="10.823" fill="#3f3d56"/>
  <ellipse cx="105.071" cy="15.446" rx="10.588" ry="10.823" fill="#3f3d56"/>
  <path d="M 529.57 5.764 L 503.589 5.764 C 502.074 5.794 501.16 7.453 501.944 8.749 C 502.293 9.327 502.914 9.685 503.589 9.699 L 529.57 9.699 C 531.084 9.669 531.998 8.01 531.214 6.714 C 530.865 6.136 530.244 5.778 529.57 5.764 Z" fill="#3f3d56"/>
  <path d="M 529.57 13.149 L 503.589 13.149 C 502.074 13.179 501.16 14.837 501.943 16.133 C 502.292 16.711 502.913 17.07 503.589 17.083 L 529.57 17.083 C 531.084 17.053 531.998 15.395 531.215 14.099 C 530.866 13.521 530.245 13.162 529.57 13.149 Z" fill="#3f3d56"/>
  <path d="M 529.57 20.524 L 503.589 20.524 C 502.075 20.554 501.161 22.212 501.944 23.508 C 502.293 24.086 502.914 24.445 503.589 24.458 L 529.57 24.458 C 531.084 24.428 531.998 22.77 531.215 21.474 C 530.866 20.896 530.245 20.537 529.57 20.524 Z" fill="#3f3d56"/>
  <circle cx="35.19338" cy="94.79521" r="13.08937" fill="#e6e7e8"/>
  <path d="M668.86084,313.839H326.34674a3.89775,3.89775,0,1,1,0-7.7955h342.5141a3.89775,3.89775,0,1,1,0,7.7955Z" transform="matrix(1, 0, 0, 1, -300.344788, -190.059387)" fill="#e6e7e8"/>
  <path d="M579.03041,329.241H326.34674a3.89794,3.89794,0,0,1,0-7.79588H579.03041a3.89794,3.89794,0,1,1,0,7.79588Z" transform="matrix(1, 0, 0, 1, -300.344788, -190.059387)" fill="#e6e7e8"/>
  <circle cx="35.19338" cy="299.09983" r="13.08937" fill="#e6e7e8"/>
  <path d="M668.86084,518.14363H326.34674a3.89775,3.89775,0,1,1,0-7.79549h342.5141a4.35939,4.35939,0,0,1,4.11419,4.19844A3.84941,3.84941,0,0,1,668.86084,518.14363Z" transform="matrix(1, 0, 0, 1, -300.344788, -190.059387)" fill="#e6e7e8"/>
  <path d="M579.03041,533.54558H326.34674a3.89794,3.89794,0,0,1,0-7.79588H579.03041a3.89794,3.89794,0,1,1,0,7.79588Z" transform="matrix(1, 0, 0, 1, -300.344788, -190.059387)" fill="#e6e7e8"/>
  <circle cx="35.19338" cy="189.24655" r="13.08937" fill="#e6e7e8"/>
  <path d="M668.86084,408.29035H326.34674a3.89775,3.89775,0,1,1,0-7.7955h342.5141a3.89775,3.89775,0,1,1,0,7.7955Z" transform="matrix(1, 0, 0, 1, -300.344788, -190.059387)" fill="#e6e7e8"/>
  <path d="M621.16327,423.6923H326.34674a3.89794,3.89794,0,0,1,0-7.79588H621.16327a3.89794,3.89794,0,0,1,0,7.79588Z" transform="matrix(1, 0, 0, 1, -300.344788, -190.059387)" fill="#e6e7e8"/>
  <path d="M601.15322,439.09425H326.34674a3.89794,3.89794,0,0,1,0-7.79588H601.15322a3.89794,3.89794,0,1,1,0,7.79588Z" transform="matrix(1, 0, 0, 1, -300.344788, -190.059387)" fill="#e6e7e8"/>
  <circle cx="306.49461" cy="324.42079" r="96.9336" fill="#f4a261"/>
  <circle cx="306.36146" cy="344.39338" r="13.84766" fill="#3f3d56"/>
  <circle cx="306.36146" cy="344.39338" r="6.39123" fill="#f4a261"/>
  <path d="M632.41156,565.278h-51.144a19.12258,19.12258,0,0,1-19.10157-19.10059V522.72822a19.12342,19.12342,0,0,1,19.10157-19.10156h51.144a19.12331,19.12331,0,0,1,19.10107,19.10156v23.44922A19.12247,19.12247,0,0,1,632.41156,565.278Zm-51.144-59.65137a17.12113,17.12113,0,0,0-17.10157,17.10156v23.44922A17.12029,17.12029,0,0,0,581.26752,563.278h51.144a17.11986,17.11986,0,0,0,17.10107-17.10059V522.72822a17.1207,17.1207,0,0,0-17.10107-17.10156Z" transform="matrix(1, 0, 0, 1, -300.344788, -190.059387)" fill="#fff"/>
  <path d="M578.23849,552.5493h45.39544a17.94254,17.94254,0,0,0,17.94256-17.94256V514.98319a17.86278,17.86278,0,0,0-1.18355-6.36529,17.895,17.895,0,0,1,7.13091,14.2951v19.62355a17.94254,17.94254,0,0,1-17.94257,17.94256H584.18585a17.93276,17.93276,0,0,1-16.759-11.57727A17.83961,17.83961,0,0,0,578.23849,552.5493Z" transform="matrix(1, 0, 0, 1, -300.344788, -190.059387)" fill="#3f3d56"/>
  <polygon points="416.909 506.542 405.755 506.541 400.448 463.514 416.912 463.515 416.909 506.542" fill="#a0616a"/>
  <path d="M717.64736,708.23783l-34.30291-.0013v-.43381a13.35238,13.35238,0,0,1,13.35164-13.35144h.00083l6.26586-4.75361,11.69073,4.75434,2.99442.0001Z" transform="matrix(1, 0, 0, 1, -300.344788, -190.059387)" fill="#2f2e41"/>
  <polygon points="495.838 506.542 506.993 506.541 512.3 463.514 495.836 463.515 495.838 506.542" fill="#a0616a"/>
  <path d="M795.79,708.23783l34.3029-.0013v-.43381a13.35238,13.35238,0,0,0-13.35164-13.35144h-.00083l-6.26586-4.75361L798.78385,694.452l-2.99442.0001Z" transform="matrix(1, 0, 0, 1, -300.344788, -190.059387)" fill="#2f2e41"/>
  <path d="M700.302,621.95549c.16474-2.45511,1.47464-16.03273,1.47464-16.03273l3.13752-28.79462,5.52988-76.32805.36083-4.9965,28.96716-5.56128,19.79775-9.491,23.53141,7.52223,18.32311,6.87118s.03136,2.94142.17254,6.49469c.18825,4.65142.51767,10.35383,1.30205,11.83632,1.30991,2.61985.98048,16.68379.98048,16.68379s1.30205,28.61417,2.94143,31.7517,1.96875,9.67142,1.47464,10.98132,1.63937,35.6736,1.63937,35.6736,5.4758,60.811,2.04021,69.98042-16.41791,3.163-16.41791,3.163.62749-2.44726-3.13753-3.60033-15.2327-87.38-15.2327-87.38-2.13349-17.68-4.09444-22.747-3.765-19.30358-3.765-19.30358-12.11084-23.56282-12.26772-28.80248c0,0-1.58447-4.90237-3.08261.49417s-5.91421,18.32311-5.91421,18.32311l-4.30624,15.8758L738.68954,578.289l-3.2787,19.97034s-4.91023,26.50419-5.69461,27.6494,0,25.359,0,25.359-3.79638,20.62135-9.16156,24.22167-19.57964.05718-19.57964.05718S700.13728,624.41061,700.302,621.95549Z" transform="matrix(1, 0, 0, 1, -300.344788, -190.059387)" fill="#2f2e41"/>
  <polygon points="412.315 236.13 418.755 255.528 410.809 264.987 414.308 268.588 411.727 273.678 404.997 327.032 441.894 341.025 454.319 325.447 464.116 341.025 506.81 330.593 495.922 262.556 495.922 258.108 492.848 249.519 492.848 231.337 500.966 177.215 476.736 168.728 465.151 159.559 461.402 172.454 445.44 169.615 445.024 159.927 432.811 171.466 422.527 174.399 410.213 177.215 408.644 181.137 411.781 180.353 411.272 231.377 412.315 236.13" fill="#2f2e41"/>
  <path d="M701.63112,497.16362l6.19682-59.98181,1.63562-24.68654L692.11883,409.359s.68726,17.65162-1.58492,27.61085c-2.24226,9.82765-.29746,58.87688-.15891,60.18842a8.4387,8.4387,0,1,0,11.25612.00535Z" transform="matrix(1, 0, 0, 1, -300.344788, -190.059387)" fill="#a0616a"/>
  <path d="M684.71257,449.61094l4.82391.99618,16.55046,3.42774.91771.18824,1.9531-7.76533,2.26687-2.41591,4.31409-22.60584.22745-1.17657,6.5182-13.93061,4.50971-41.87022-16.77006,3.012c-.08627.08627-.16474.18039-.24315.27451-2.40806,2.72963-4.12585,6.52605-6.93395,10.346-9.138,12.43246-16.14988,42.6389-15.87532,59.18936.00785.26666-.26671.55688-.59614.855A9.18008,9.18008,0,0,0,684.71257,449.61094Z" transform="matrix(1, 0, 0, 1, -300.344788, -190.059387)" fill="#2f2e41"/>
  <path d="M809.45309,497.16362l-6.19682-59.98181-1.63562-24.68654,17.34473-3.13627s-.68726,17.65162,1.58492,27.61085c2.24226,9.82765.29746,58.87688.15891,60.18842a8.43869,8.43869,0,1,1-11.25612.00535Z" transform="matrix(1, 0, 0, 1, -300.344788, -190.059387)" fill="#a0616a"/>
  <path d="M826.37164,449.61094l-4.82391.99618-16.55045,3.42774-.91772.18824-1.95309-7.76533-2.26688-2.41591L795.5455,421.436l-.22745-1.17657-6.5182-13.93061,1.4903-41.87022,10.77,3.012c.08627.08627.16474.18039.24316.27451,2.40805,2.72963,4.12584,6.52605,6.93394,10.346,9.138,12.43246,16.14988,42.6389,15.87532,59.18936-.00785.26666.26671.55688.59614.855A9.18008,9.18008,0,0,1,826.37164,449.61094Z" transform="matrix(1, 0, 0, 1, -300.344788, -190.059387)" fill="#2f2e41"/>
  <path d="M737.489,370.65369l7.87971-20.6669,20.12717-.36864,6.67878,21.03554,24.0059,134.1036s-73.54408,20.48067-72.79806-4.13807c.78438-25.88455,4.32336-60.26788,4.32336-60.26788Z" transform="matrix(1, 0, 0, 1, -300.344788, -190.059387)" fill="#f4a261"/>
  <circle cx="454.63748" cy="130.43677" r="23.70998" fill="#a0616a"/>
  <path d="M729.87412,303.296c3.86011-4.2014,8.68826-11.892,23.31228-15.12147,18.07034-3.99055,26.60919,12.33362,22.05218,12.6012,13.32515,4.03514,4.76529,31.6106.94512,29.29792A1.12494,1.12494,0,0,1,776.08928,330,18.77,18.77,0,0,1,768.592,317.1934l-.725-6.52543c-.10351,5.30926-5.53035,6.01158-11.07409,4.05623a6.95535,6.95535,0,0,1,4.91385-4.83821,23.78593,23.78593,0,0,1-13.97147,6.07912,9.51087,9.51087,0,0,1,4.62511-6.36419l-.2188-.215a22.84961,22.84961,0,0,1-7.33,4.1504c-3.056.87594-6.71782.40207-8.81164-1.99015a6.50041,6.50041,0,0,1-1.25249-2.25409c.45268,4.2047-2.36752,9.00438-4.55825,8.18032C728.36675,317.11823,727.30441,306.0929,729.87412,303.296Z" transform="matrix(1, 0, 0, 1, -300.344788, -190.059387)" fill="#2f2e41"/>
  <path d="M 540.527 517.734 C 540.529 516.776 540.215 516 539.829 516.004 L 375.238 516.004 C 374.701 516.004 374.365 517.445 374.633 518.597 C 374.758 519.133 374.989 519.464 375.238 519.464 L 539.829 519.464 C 540.215 519.467 540.528 518.692 540.527 517.734 Z" fill="#ccc" style=""/>
  <path d="M607.62666,461.92192c-9.48085,0-17.81459,4.29206-22.5331,10.73464a29.12131,29.12131,0,0,1,17.37286-5.5744c14.68157,0,26.626,10.28436,26.626,22.92543v10.50777h5.16024v-15.668C634.25262,472.20628,622.30823,461.92192,607.62666,461.92192Z" transform="matrix(1, 0, 0, 1, -300.344788, -190.059387)" fill="#3f3d56"/>
  <path d="M637.79828,505.89326h-61.918V487.67549c0-14.69824,13.88818-26.65625,30.959-26.65625s30.959,11.958,30.959,26.65625Zm-59.918-2h57.918V487.67549c0-13.5957-12.99073-24.65625-28.959-24.65625s-28.959,11.06055-28.959,24.65625Z" transform="matrix(1, 0, 0, 1, -300.344788, -190.059387)" fill="#fff"/>
  <path d="M622.69671,498.93818H590.98187a5.38755,5.38755,0,0,1-5.38135-5.38183v-7.25c0-10.1084,9.52783-18.332,21.23877-18.332s21.23877,8.22363,21.23877,18.332v7.25A5.38754,5.38754,0,0,1,622.69671,498.93818Zm-15.85742-28.96386c-10.6084,0-19.23877,7.32617-19.23877,16.332v7.25a3.38525,3.38525,0,0,0,3.38135,3.38183h31.71484a3.38525,3.38525,0,0,0,3.38135-3.38183v-7.25C626.07806,477.30049,617.44769,469.97432,606.83929,469.97432Z" transform="matrix(1, 0, 0, 1, -300.344788, -190.059387)" fill="#fff"/>
</svg>